<?xml version="1.0" encoding="UTF-8" standalone="no"?>
<svg width="1297px" height="218px" viewBox="0 0 1297 218" version="1.1" xmlns="http://www.w3.org/2000/svg" xmlns:xlink="http://www.w3.org/1999/xlink">
    <!-- Generator: Sketch 39.1 (31720) - http://www.bohemiancoding.com/sketch -->
    <title>Logo</title>
    <desc>Created with Sketch.</desc>
    <defs></defs>
    <g id="Page-1" stroke="none" stroke-width="1" fill="none" fill-rule="evenodd">
        <g id="Logo" transform="translate(-72.000000, -48.000000)">
            <g id="Group" transform="translate(72.000000, 48.000000)">
                <circle id="Oval-1" fill="#70D6E6" cx="1021" cy="13" r="12"></circle>
                <circle id="Oval-1" fill="#70D6E6" cx="1021" cy="61" r="12"></circle>
                <circle id="Oval-1" fill="#70D6E6" cx="1021" cy="109" r="12"></circle>
                <circle id="Oval-1" fill="#70D6E6" cx="1069" cy="109" r="12"></circle>
                <circle id="Oval-1" fill="#70D6E6" cx="1069" cy="13" r="12"></circle>
                <circle id="Oval-1" fill="#70D6E6" cx="1117" cy="61" r="12"></circle>
                <circle id="Oval-1" fill="#70D6E6" cx="1117" cy="12" r="12"></circle>
                <circle id="Oval-1" fill="#70D6E6" cx="1117" cy="109" r="12"></circle>
                <circle id="Oval-1" fill="#70D6E6" cx="1021" cy="157" r="12"></circle>
                <circle id="Oval-1" fill="#70D6E6" cx="1021" cy="205" r="12"></circle>
                <circle id="Oval-1" fill="#70D6E6" cx="686" cy="14" r="12"></circle>
                <circle id="Oval-1" fill="#70D6E6" cx="687" cy="110" r="12"></circle>
                <circle id="Oval-1" fill="#70D6E6" cx="687" cy="157" r="12"></circle>
                <circle id="Oval-1" fill="#70D6E6" cx="687" cy="206" r="12"></circle>
                <circle id="Oval-1" fill="#70D6E6" cx="734" cy="109" r="12"></circle>
                <circle id="Oval-1" fill="#70D6E6" cx="687" cy="62" r="12"></circle>
                <circle id="Oval-1" fill="#70D6E6" cx="780" cy="14" r="12"></circle>
                <circle id="Oval-1" fill="#70D6E6" cx="781" cy="110" r="12"></circle>
                <circle id="Oval-1" fill="#70D6E6" cx="781" cy="157" r="12"></circle>
                <circle id="Oval-1" fill="#70D6E6" cx="781" cy="206" r="12"></circle>
                <circle id="Oval-1" fill="#70D6E6" cx="781" cy="62" r="12"></circle>
                <circle id="Oval-1" fill="#70D6E6" cx="396" cy="12" r="12"></circle>
                <circle id="Oval-1" fill="#70D6E6" cx="348" cy="12" r="12"></circle>
                <circle id="Oval-1" fill="#70D6E6" cx="444" cy="12" r="12"></circle>
                <circle id="Oval-1" fill="#70D6E6" cx="396" cy="60" r="12"></circle>
                <circle id="Oval-1" fill="#70D6E6" cx="396" cy="108" r="12"></circle>
                <circle id="Oval-1" fill="#70D6E6" cx="396" cy="156" r="12"></circle>
                <circle id="Oval-1" fill="#70D6E6" cx="396" cy="204" r="12"></circle>
                <g id="O" fill="#70D6E6">
                    <circle id="Oval-1" cx="12" cy="12" r="12"></circle>
                    <circle id="Oval-1" cx="60" cy="12" r="12"></circle>
                    <circle id="Oval-1" cx="108" cy="60" r="12"></circle>
                    <circle id="Oval-1" cx="108" cy="12" r="12"></circle>
                    <circle id="Oval-1" cx="12" cy="60" r="12"></circle>
                    <circle id="Oval-1" cx="108" cy="108" r="12"></circle>
                    <circle id="Oval-1" cx="108" cy="156" r="12"></circle>
                    <circle id="Oval-1" cx="108" cy="204" r="12"></circle>
                    <circle id="Oval-1" cx="60" cy="204" r="12"></circle>
                    <circle id="Oval-1" cx="12" cy="204" r="12"></circle>
                    <circle id="Oval-1" cx="12" cy="156" r="12"></circle>
                    <circle id="Oval-1" cx="12" cy="108" r="12"></circle>
                </g>
                <circle id="Oval-1" fill="#FF7D5F" cx="1189" cy="13" r="12"></circle>
                <circle id="Oval-1" fill="#FF7D5F" cx="1236" cy="13" r="12"></circle>
                <circle id="Oval-1" fill="#FF7D5F" cx="1285" cy="13" r="12"></circle>
                <circle id="Oval-1" fill="#FF7D5F" cx="1188" cy="61" r="12"></circle>
                <circle id="Oval-1" fill="#FF7D5F" cx="1188" cy="110" r="12"></circle>
                <circle id="Oval-1" fill="#FF7D5F" cx="1236" cy="109" r="12"></circle>
                <circle id="Oval-1" fill="#FF7D5F" cx="1188" cy="157" r="12"></circle>
                <circle id="Oval-1" fill="#FF7D5F" cx="1189" cy="205" r="12"></circle>
                <circle id="Oval-1" fill="#FF7D5F" cx="1236" cy="205" r="12"></circle>
                <circle id="Oval-1" fill="#FF7D5F" cx="1284" cy="205" r="12"></circle>
                <circle id="Oval-1" fill="#FF7D5F" cx="853" cy="204" r="12"></circle>
                <circle id="Oval-1" fill="#FF7D5F" cx="853" cy="157" r="12"></circle>
                <circle id="Oval-1" fill="#FF7D5F" cx="853" cy="109" r="12"></circle>
                <circle id="Oval-1" fill="#FF7D5F" cx="901" cy="108" r="12"></circle>
                <circle id="Oval-1" fill="#FF7D5F" cx="949" cy="109" r="12"></circle>
                <circle id="Oval-1" fill="#FF7D5F" cx="853" cy="61" r="12"></circle>
                <circle id="Oval-1" fill="#FF7D5F" cx="853" cy="12" r="12"></circle>
                <circle id="Oval-1" fill="#FF7D5F" cx="901" cy="12" r="12"></circle>
                <circle id="Oval-1" fill="#FF7D5F" cx="949" cy="12" r="12"></circle>
                <circle id="Oval-1" fill="#FF7D5F" cx="949" cy="60" r="12"></circle>
                <circle id="Oval-1" fill="#FF7D5F" cx="949" cy="157" r="12"></circle>
                <circle id="Oval-1" fill="#FF7D5F" cx="949" cy="204" r="12"></circle>
                <circle id="Oval-1" fill="#FF7D5F" cx="516" cy="12" r="12"></circle>
                <circle id="Oval-1" fill="#FF7D5F" cx="564" cy="12" r="12"></circle>
                <circle id="Oval-1" fill="#FF7D5F" cx="612" cy="12" r="12"></circle>
                <circle id="Oval-1" fill="#FF7D5F" cx="516" cy="61" r="12"></circle>
                <circle id="Oval-1" fill="#FF7D5F" cx="516" cy="109" r="12"></circle>
                <circle id="Oval-1" fill="#FF7D5F" cx="564" cy="108" r="12"></circle>
                <circle id="Oval-1" fill="#FF7D5F" cx="612" cy="108" r="12"></circle>
                <circle id="Oval-1" fill="#FF7D5F" cx="612" cy="156" r="12"></circle>
                <circle id="Oval-1" fill="#FF7D5F" cx="612" cy="204" r="12"></circle>
                <circle id="Oval-1" fill="#FF7D5F" cx="564" cy="204" r="12"></circle>
                <circle id="Oval-1" fill="#FF7D5F" cx="516" cy="204" r="12"></circle>
                <circle id="Oval-1" fill="#FF7D5F" cx="180" cy="12" r="12"></circle>
                <circle id="Oval-1" fill="#FF7D5F" cx="180" cy="61" r="12"></circle>
                <circle id="Oval-1" fill="#FF7D5F" cx="180" cy="108" r="12"></circle>
                <circle id="Oval-1" fill="#FF7D5F" cx="180" cy="156" r="12"></circle>
                <circle id="Oval-1" fill="#FF7D5F" cx="180" cy="204" r="12"></circle>
                <circle id="Oval-1" fill="#FF7D5F" cx="228" cy="204" r="12"></circle>
                <circle id="Oval-1" fill="#FF7D5F" cx="276" cy="156" r="12"></circle>
                <circle id="Oval-1" fill="#FF7D5F" cx="277" cy="204" r="12"></circle>
                <circle id="Oval-1" fill="#FF7D5F" cx="276" cy="108" r="12"></circle>
                <circle id="Oval-1" fill="#FF7D5F" cx="276" cy="60" r="12"></circle>
                <circle id="Oval-1" fill="#FF7D5F" cx="276" cy="12" r="12"></circle>
            </g>
        </g>
    </g>
</svg>